<?xml version="1.0" encoding="UTF-8"?>
<!DOCTYPE svg PUBLIC "-//W3C//DTD SVG 1.1//EN" "http://www.w3.org/Graphics/SVG/1.1/DTD/svg11.dtd">
<!-- Creator: CorelDRAW X6 -->
<svg xmlns="http://www.w3.org/2000/svg" xml:space="preserve" width="3.51389in" height="1.79166in" version="1.1" style="shape-rendering:geometricPrecision; text-rendering:geometricPrecision; image-rendering:optimizeQuality; fill-rule:evenodd; clip-rule:evenodd"
viewBox="0 0 3514 1792"
 xmlns:xlink="http://www.w3.org/1999/xlink">
 <defs>
  <style type="text/css">
   <![CDATA[
    .fil0 {fill:#373435;fill-rule:nonzero}
   ]]>
  </style>
 </defs>
 <g id="Layer_x0020_1">
  <metadata id="CorelCorpID_0Corel-Layer"/>
  <path class="fil0" d="M1029 623c0,0 0,-1 0,-1 0,-7 -6,-13 -10,-16 -4,-2 -12,-1 -20,1 2,2 4,5 5,7l1 2 2 4c1,3 3,7 6,10l16 0c1,-2 1,-4 1,-6l0 0z"/>
  <path class="fil0" d="M1001 621l-1 -2 -1 -2c-1,-3 -3,-6 -7,-9l-1 -1c-5,-2 -27,-5 -41,0 3,3 5,6 6,8l1 2 2 3c1,3 3,7 6,10l42 0c-2,-3 -3,-6 -4,-8l0 0z"/>
  <path class="fil0" d="M952 621l-1 -2 0 0 -1 -2c-2,-3 -4,-7 -9,-10 -5,-2 -27,-5 -41,0 3,3 5,6 6,8l1 2 2 4c1,3 3,7 6,10l42 0c-2,-3 -3,-6 -4,-8l0 0z"/>
  <path class="fil0" d="M904 621l-1 -2 -1 -2c-2,-3 -4,-7 -9,-10 -5,-2 -27,-5 -41,0 3,3 5,6 6,8l1 2 2 4c1,3 3,7 6,10l42 0c-2,-3 -3,-6 -4,-8l0 0z"/>
  <path class="fil0" d="M856 621l-1 -2 -1 -2c-2,-3 -4,-7 -9,-10 -5,-2 -27,-5 -42,0 2,2 4,5 6,7l1 2 2 3c1,3 4,8 9,11l39 0c-2,-3 -3,-6 -4,-8l0 0z"/>
  <path class="fil0" d="M807 620l-1 -2 -1 -2c-2,-3 -4,-6 -8,-9l-1 -1c-6,-3 -15,-1 -21,4 -2,2 -2,4 -2,6l0 1c0,4 2,9 4,13l36 0c-3,-3 -5,-7 -6,-9l0 0z"/>
  <path class="fil0" d="M959 357l0 0c-8,3 -19,-1 -19,-4 0,-6 9,-9 14,-4 0,0 6,-12 -9,-12 0,0 6,-9 1,-15 -9,2 -9,13 -9,13 -12,-8 -14,4 -14,4 7,-2 12,7 9,12 -1,1 -3,4 -13,3 -3,0 -8,-1 -11,-3l-5 -10 15 6 0 -20 -15 6 7 -13 -5 0c3,-7 8,-14 8,-16 1,-2 4,-4 8,-2 4,2 36,12 50,34 2,3 -5,19 -13,22l0 0zm-69 -7l0 0c-4,2 -8,3 -12,3 -11,1 -12,-2 -13,-3 -3,-5 2,-13 10,-12 0,0 -2,-12 -14,-4 0,0 0,-11 -9,-13 -6,7 1,15 1,15 -14,0 -9,12 -9,12 5,-6 14,-2 14,4 0,4 -11,7 -19,4 -8,-3 -15,-19 -13,-22 14,-22 46,-32 51,-34 4,-2 7,0 8,2 1,2 5,9 8,16l-5 0 7 14 -16 -6 0 20 16 -7 -5 10 0 0zm103 -22c-29,-35 -64,-46 -88,-48l-3 -8 9 4 0 -14 -9 4 4 -9 -14 0 4 9 -9 -4 0 14 9 -4 -4 8c-24,1 -59,14 -88,49 -1,2 -3,6 -1,9 2,2 4,3 6,5 2,2 9,16 10,20 1,4 2,9 2,9 0,0 -1,7 2,10 2,2 7,2 7,3 1,1 1,3 7,2 6,-1 31,-11 61,-11 30,0 55,9 61,11 6,1 6,-1 7,-2 1,-1 5,-1 7,-3 3,-3 2,-10 2,-10 0,0 0,-6 2,-9 1,-4 8,-18 10,-20 2,-2 4,-3 6,-5 2,-2 1,-7 -1,-9l0 0z"/>
  <path class="fil0" d="M937 484l41 0 0 61 -41 0 0 -61zm-57 0l41 0 0 61 -41 0 0 -61zm-57 0l41 0 0 61 -41 0 0 -61zm0 -80l41 0 0 62 -41 0 0 -62zm78 0l21 0 0 62 -41 0 0 -62 20 0 0 0zm78 62l-41 0 0 -62 41 0 0 62zm-77 -80l-134 0 0 13c0,0 13,0 25,6 9,5 13,15 15,19l0 152 -8 0 16 27 16 -27 -8 0 0 -13 41 0 0 13 -8 0 16 27 16 -27 -8 0 0 -13 41 0 0 13 -8 0 16 27 16 -27 -8 0 0 -13 41 0 0 13 -8 0 16 27 16 -27 -8 0 0 -152c1,-4 5,-14 14,-19 12,-6 25,-6 25,-6l0 -13 -132 0 0 0z"/>
  <path class="fil0" d="M777 405l0 0c0,-5 4,-8 8,-8 5,0 8,4 8,8 0,5 -4,8 -8,8 -5,0 -8,-4 -8,-8l0 0zm-7 0c0,8 7,15 15,15 8,0 15,-7 15,-15 0,-8 -7,-15 -15,-15 -8,0 -15,7 -15,15l0 0z"/>
  <path class="fil0" d="M777 426l0 0c3,0 5,1 8,1 -1,4 -2,11 -2,15 -3,0 -5,-1 -8,-1 0,-4 1,-11 2,-15l0 0zm-6 -4l-3 25 21 3 4 -28 -21 -3 0 3 0 0z"/>
  <path class="fil0" d="M774 458l0 0c3,0 5,0 8,0 0,4 0,10 0,14 -3,0 -5,0 -8,0 0,-4 0,-10 0,-14l0 0zm-7 -4l-1 24 22 1 1 -28 -22 -1 0 3 0 0z"/>
  <path class="fil0" d="M781 488l0 0c0,4 0,11 0,15 -3,0 -5,0 -8,0 0,-4 0,-11 0,-15 3,0 5,0 8,0l0 0zm3 -7l-18 0 0 28 22 0 0 -28 -3 0 0 0z"/>
  <path class="fil0" d="M772 518l0 0c3,0 5,0 8,1 0,4 -1,11 -2,15 -3,0 -5,0 -8,-1 0,-4 1,-11 1,-15l0 0zm-6 -4l-3 25 21 2 3 -28 -21 -2 0 3 0 0z"/>
  <path class="fil0" d="M767 548l0 0c3,1 5,1 8,2 -1,4 -3,11 -3,14 -3,-1 -5,-1 -8,-2 1,-4 3,-10 3,-14l0 0zm-6 -5l-6 24 21 5 7 -28 -21 -5 -1 3 0 0z"/>
  <path class="fil0" d="M758 578l0 0c3,1 5,2 7,4 -2,4 -5,9 -7,13 -3,-1 -5,-2 -7,-4 2,-4 5,-10 7,-13l0 0zm-4 -6l-12 22 19 10 13 -25 -19 -10 -2 3 0 0z"/>
  <path class="fil0" d="M735 612l0 0c0,-5 4,-8 8,-8 5,0 8,4 8,8 0,5 -4,8 -8,8 -5,0 -8,-4 -8,-8l0 0zm-7 0c0,8 7,15 15,15 8,0 15,-7 15,-15 0,-8 -7,-15 -15,-15 -8,0 -15,7 -15,15l0 0z"/>
  <path class="fil0" d="M1016 413l0 0c-5,0 -8,-4 -8,-8 0,-5 4,-8 8,-8 5,0 9,4 9,8 0,5 -4,8 -9,8l0 0zm0 -24c-8,0 -15,7 -15,15 0,8 7,15 15,15 8,0 15,-7 15,-15 0,-8 -7,-15 -15,-15l0 0z"/>
  <path class="fil0" d="M1025 441l0 0c-3,0 -5,1 -8,1 -1,-4 -1,-11 -2,-15 3,0 5,-1 8,-1 1,4 1,11 2,15l0 0zm4 -22l-22 3 4 28 21 -3 -3 -25 0 -3 0 0z"/>
  <path class="fil0" d="M1028 472l0 0c-3,0 -5,0 -8,0 0,-4 0,-10 0,-14 3,0 5,0 8,0 0,4 0,10 0,14l0 0zm6 -21l-22 1 1 28 22 -1 -1 -24 0 -3 0 0z"/>
  <path class="fil0" d="M1028 488l0 0c0,4 0,11 0,15 -3,0 -5,0 -8,0 0,-4 0,-11 0,-15 3,0 5,0 8,0l0 0zm-15 -7l0 28 22 0 0 -28 -18 0 -3 0 0 0z"/>
  <path class="fil0" d="M1031 532l0 0c-3,0 -5,1 -8,1 0,-4 -1,-11 -2,-15 3,0 5,-1 8,-1 0,4 1,11 2,15l0 0zm4 -22l-21 2 3 28 22 -2 -3 -25 0 -3 0 0z"/>
  <path class="fil0" d="M1037 563l0 0c-3,1 -5,1 -8,2 -1,-4 -3,-10 -3,-14 3,-1 5,-1 8,-2 1,4 2,11 3,14l0 0zm2 -22l-21 5 7 28 21 -5 -6 -24 -1 -3 0 0z"/>
  <path class="fil0" d="M1050 591l0 0c-2,1 -5,2 -7,4 -2,-4 -5,-9 -7,-13 2,-1 5,-2 7,-4 2,3 5,9 7,13l0 0zm-4 -22l-19 10 13 25 19 -10 -12 -22 -2 -3 0 0z"/>
  <path class="fil0" d="M1057 620l0 0c-5,0 -8,-4 -8,-8 0,-5 4,-8 8,-8 5,0 8,4 8,8 0,5 -4,8 -8,8l0 0zm0 -24c-8,0 -15,7 -15,15 0,8 7,15 15,15 8,0 15,-7 15,-15 0,-8 -7,-15 -15,-15l0 0z"/>
  <path class="fil0" d="M492 639l21 9 15 6 26 11c-2,-7 -1,-13 -1,-13 0,0 8,5 16,-4 8,-9 1,-23 -12,-35 -13,-12 -27,-14 -45,-7 -12,4 -21,15 -27,28 3,2 5,3 8,5l0 0z"/>
  <path class="fil0" d="M707 848l0 0c-7,-1 -14,-2 -16,1 0,0 -2,-15 2,-21 3,-6 3,-10 8,-11 0,0 -14,-7 -19,0 -5,7 -8,15 -8,20 0,0 -4,6 -7,6 0,0 1,12 2,23 1,11 -2,25 -6,40 -4,15 -17,36 -21,40 -3,3 -7,7 -10,5 -1,-2 -2,-3 -2,-6 -1,-3 0,-5 0,-6 1,-8 4,-18 6,-32 5,-10 10,-22 14,-32 7,-20 20,-41 13,-89 -7,-48 -52,-81 -65,-91 -7,-6 -19,-11 -38,-20 -15,-6 -34,-14 -59,-24 -8,-3 -15,-7 -21,-10 -37,-20 -43,-38 -46,-49 -3,-12 8,-40 47,-42 39,-2 65,24 74,34 9,11 16,27 26,39 10,12 32,17 32,17 9,15 27,29 31,33 3,2 6,5 8,9l2 3c0,0 0,-1 -1,-1 2,2 3,3 4,4 2,1 4,-5 4,-10 0,-6 -1,-11 -4,-15 -3,-4 -8,-20 -10,-25 -2,-4 -3,-11 -4,-13 0,0 0,-1 0,-1 0,0 5,-18 -14,-44 -14,-18 -36,-24 -45,-29 -9,-5 -34,-21 -49,-27 -15,-6 -42,-15 -66,-13 -24,2 -61,12 -77,55 -15,39 4,70 12,88 17,-8 32,-5 43,-2 15,3 33,11 43,19 15,11 18,28 18,41 0,8 -1,15 -2,18 -2,9 -9,15 -14,18 2,2 3,4 5,8 2,3 2,6 3,8 11,-4 28,-5 48,-6l11 0c3,0 6,2 6,5 0,3 -2,5 -5,6l-11 0c-17,1 -42,2 -50,8l-10 8 2 -13c0,0 1,-5 -2,-11 -3,-7 -7,-10 -7,-10l-6 -6 8 -3c0,0 12,-5 14,-14 1,-4 7,-34 -12,-48 -9,-7 -26,-14 -40,-17 -15,-3 -35,-8 -55,18 -35,45 -53,82 -55,116 0,3 0,5 0,8 0,31 11,49 21,66l7 12c9,18 40,90 57,181l1 3c1,7 3,14 4,18 17,-16 104,-113 114,-154l0 -2 1 -1c2,-1 34,-29 34,-77 0,-9 -1,-18 -4,-28 0,0 0,-1 0,-1 0,-2 2,-5 4,-5 3,-1 6,1 6,4 3,11 4,21 4,30 0,49 -31,80 -37,85 -8,30 -48,81 -80,117 2,10 1,16 1,21 0,6 3,17 6,24 0,2 1,3 1,4 2,7 -2,46 -4,57 -2,11 -22,28 -32,34 -6,4 -4,9 -3,11 0,0 8,-7 17,-7 9,1 19,-3 32,5 13,8 20,11 23,21 2,6 3,10 3,10 0,0 9,-11 10,-18 0,0 20,-13 31,-14 11,-1 24,3 25,9 0,0 1,-12 -6,-19 -3,-3 -9,-8 -9,-8 0,0 6,-5 10,-1 0,0 -1,-12 -7,-12 -5,-1 -30,-1 -38,-1 -9,0 -26,-3 -30,-14 -4,-10 -1,-50 4,-54 2,-2 4,-2 5,-2 3,0 5,1 5,2 0,0 3,-12 8,-16 3,-3 23,-26 34,-54 21,0 38,-3 52,-12 19,-12 36,-23 45,-20 0,0 3,-15 -6,-19 0,0 16,-24 21,-35 5,-11 13,-11 12,-5 -1,6 -5,30 25,27 0,0 -5,-5 -6,-11 -1,-7 -7,-59 -3,-70 4,-11 11,-28 15,-29 4,-1 7,-1 9,2 0,0 -4,-11 -10,-11l0 0zm-378 103c-23,24 -33,34 -38,41 0,0 -8,6 -4,9 4,3 31,9 56,6 -13,16 -30,43 -33,63 -4,23 8,45 20,49 11,4 22,1 30,-9 11,-13 16,-47 16,-47 0,0 18,0 33,0 -15,-76 -40,-143 -53,-170 -2,20 -9,39 -27,58l0 0z"/>
  <path class="fil0" d="M851 435l0 0c-1,1 -3,2 -4,3 -1,1 -3,2 -4,3 -1,1 -2,3 -3,4 -1,1 -1,3 -2,4 -1,2 -2,3 -3,4 -1,2 -1,3 -1,5 0,1 0,1 0,2l24 0 0 -30c-1,1 -1,1 -2,2 -1,1 -3,1 -5,2l0 0zm-14 56l0 0c1,1 3,2 4,3 1,1 2,2 3,3 1,1 2,2 3,4 1,1 3,2 4,3 1,1 2,3 3,4 1,0 2,1 3,1l0 -18 -20 0c0,0 0,1 0,1l0 0zm48 28l0 0c0,0 0,0 0,0 2,10 2,15 1,21l19 0c0,-6 2,-13 9,-22 0,0 0,0 0,0l0 -28 -30 0 0 29zm21 -98l0 0c-2,0 -4,-1 -5,-1 -1,0 -3,1 -4,1 -1,0 -3,-1 -4,-1 -1,0 -3,1 -4,2 -1,0 -2,0 -3,0l0 39 30 0 0 -40c-1,-1 -2,-1 -3,-2 -2,0 -4,2 -6,2l0 0zm36 88l0 0c1,-1 3,-1 4,-2 1,-1 3,-2 4,-3 1,-1 3,-1 5,-2 1,-1 1,-3 3,-5 1,-1 2,-2 3,-4 1,-1 3,-2 4,-3l-23 0 0 18zm26 -53c-1,-1 -2,-3 -2,-4 -1,-1 -3,-2 -3,-3 -1,-1 0,-4 -1,-5 -1,-1 -2,-2 -4,-3 -1,-1 -3,-1 -4,-2 -1,-1 -3,-2 -4,-3 -1,-1 -2,-2 -4,-3 -1,-1 -2,-1 -3,-2l0 30 26 0c0,-1 0,-3 0,-5l0 0z"/>
  <polygon class="fil0" points="419,1282 441,1282 441,1288 426,1288 426,1295 439,1295 439,1300 426,1300 426,1313 419,1313 "/>
  <path class="fil0" d="M459 1308l0 0c6,0 8,-5 8,-10 0,-5 -2,-11 -8,-11 -6,0 -8,5 -8,11 0,5 2,10 8,10l0 0zm0 -27c10,0 15,7 15,16 0,9 -6,16 -15,16 -10,0 -15,-7 -15,-16 0,-9 6,-16 15,-16l0 0z"/>
  <path class="fil0" d="M485 1296l7 0c3,0 5,-1 5,-4 0,-3 -2,-4 -5,-4l-7 0 0 9zm-7 -14l17 0c6,0 9,4 9,9 0,4 -1,6 -5,8l0 0c3,1 4,4 4,7 0,2 0,6 1,7l-7 0c-1,-2 -1,-5 -1,-7 -1,-3 -2,-5 -5,-5l-7 0 0 12 -7 0 0 -31z"/>
  <polygon class="fil0" points="528,1288 519,1288 519,1282 544,1282 544,1288 535,1288 535,1313 528,1313 "/>
  <polygon class="fil0" points="548,1282 555,1282 555,1294 567,1294 567,1282 574,1282 574,1313 567,1313 567,1300 555,1300 555,1313 548,1313 "/>
  <polygon class="fil0" points="580,1282 603,1282 603,1288 587,1288 587,1295 602,1295 602,1300 587,1300 587,1308 603,1308 603,1313 580,1313 "/>
  <path class="fil0" d="M637 1302l0 0 3 3c1,-2 2,-4 2,-7 0,-5 -2,-11 -8,-11 -6,0 -8,5 -8,11 0,5 2,10 8,10 1,0 2,0 3,0l-3 -3 3 -3 0 0zm9 14l-4 -4c-2,1 -5,2 -7,2 -10,0 -15,-7 -15,-16 0,-9 6,-16 15,-16 10,0 15,7 15,16 0,4 -1,8 -4,11l4 4 -3 3 0 0z"/>
  <path class="fil0" d="M680 1302c0,8 -5,12 -13,12 -8,0 -13,-4 -13,-12l0 -19 7 0 0 19c0,3 1,7 6,7 5,0 6,-2 6,-7l0 -19 7 0 0 19z"/>
  <polygon class="fil0" points="685,1282 709,1282 709,1288 692,1288 692,1295 707,1295 707,1300 692,1300 692,1308 709,1308 709,1313 685,1313 "/>
  <polygon class="fil0" points="713,1282 737,1282 737,1288 720,1288 720,1295 735,1295 735,1300 720,1300 720,1308 737,1308 737,1313 713,1313 "/>
  <polygon class="fil0" points="741,1282 748,1282 761,1303 761,1303 761,1282 767,1282 767,1313 761,1313 748,1293 748,1293 748,1313 741,1313 "/>
  <path class="fil0" d="M773 1307l7 0 0 7c0,4 -3,7 -7,7l0 -3c2,0 3,-2 3,-4l-3 0 0 -7z"/>
  <polygon class="fil0" points="804,1288 795,1288 795,1282 820,1282 820,1288 811,1288 811,1313 804,1313 "/>
  <polygon class="fil0" points="824,1282 831,1282 831,1294 843,1294 843,1282 850,1282 850,1313 843,1313 843,1300 831,1300 831,1313 824,1313 "/>
  <polygon class="fil0" points="856,1282 879,1282 879,1288 863,1288 863,1295 877,1295 877,1300 863,1300 863,1308 879,1308 879,1313 856,1313 "/>
  <polygon class="fil0" points="896,1282 903,1282 903,1308 918,1308 918,1313 896,1313 "/>
  <path class="fil0" d="M929 1301l8 0 -4 -11 0 0 -4 11 0 0zm1 -19l7 0 12 31 -7 0 -2 -7 -12 0 -2 7 -7 0 12 -31 0 0z"/>
  <polygon class="fil0" points="979,1313 973,1313 968,1292 967,1292 962,1313 955,1313 947,1282 954,1282 959,1303 959,1303 964,1282 971,1282 976,1304 976,1304 981,1282 988,1282 979,1313 "/>
  <path class="fil0" d="M987 1307l7 0 0 7c0,4 -3,7 -7,7l0 -3c2,0 3,-2 3,-4l-3 0 0 -7z"/>
  <path class="fil0" d="M1019 1301l8 0 -4 -11 0 0 -4 11 0 0zm1 -19l7 0 12 31 -7 0 -2 -7 -12 0 -2 7 -7 0 12 -31 0 0z"/>
  <polygon class="fil0" points="1041,1282 1048,1282 1061,1303 1061,1282 1067,1282 1067,1313 1060,1313 1048,1293 1048,1293 1048,1313 1041,1313 "/>
  <path class="fil0" d="M1080 1308l6 0c4,0 8,-2 8,-9 0,-6 -2,-10 -9,-10l-5 0 0 19zm-7 -25l13 0c8,0 14,5 14,15 0,9 -5,16 -14,16l-13 0 0 -31z"/>
  <polygon class="fil0" points="1124,1288 1115,1288 1115,1282 1140,1282 1140,1288 1131,1288 1131,1313 1124,1313 "/>
  <polygon class="fil0" points="1144,1282 1150,1282 1150,1294 1163,1294 1163,1282 1170,1282 1170,1313 1163,1313 1163,1300 1150,1300 1150,1313 1144,1313 "/>
  <polygon class="fil0" points="1176,1282 1199,1282 1199,1288 1182,1288 1182,1295 1197,1295 1197,1300 1182,1300 1182,1308 1199,1308 1199,1313 1176,1313 "/>
  <path class="fil0" d="M1222 1297l5 0c3,0 6,-1 6,-5 0,-4 -3,-5 -6,-5l-5 0 0 9zm-7 -15l14 0c8,0 11,5 11,10 0,5 -3,10 -11,10l-7 0 0 11 -7 0 0 -31z"/>
  <polygon class="fil0" points="1244,1282 1267,1282 1267,1288 1251,1288 1251,1295 1266,1295 1266,1300 1251,1300 1251,1308 1268,1308 1268,1313 1244,1313 "/>
  <path class="fil0" d="M1286 1308l0 0c6,0 8,-5 8,-10 0,-5 -2,-11 -8,-11 -6,0 -8,5 -8,11 0,5 2,10 8,10l0 0zm0 -27c10,0 15,7 15,16 0,9 -6,16 -15,16 -9,0 -15,-7 -15,-16 0,-9 6,-16 15,-16l0 0z"/>
  <path class="fil0" d="M1313 1297l5 0c3,0 6,-1 6,-5 0,-4 -3,-5 -6,-5l-5 0 0 9zm-7 -15l14 0c8,0 11,5 11,10 0,5 -3,10 -11,10l-7 0 0 11 -7 0 0 -31z"/>
  <polygon class="fil0" points="1335,1282 1341,1282 1341,1308 1356,1308 1356,1313 1335,1313 "/>
  <polygon class="fil0" points="1360,1282 1383,1282 1383,1288 1367,1288 1367,1295 1382,1295 1382,1300 1367,1300 1367,1308 1384,1308 1384,1313 1360,1313 "/>
  <path class="fil0" d="M1395 1333l-991 0 0 -71 991 0 0 71zm5 -82l-1006 0 0 92 1012 0 0 -92 -5 0 0 0z"/>
  <path class="fil0" d="M1461 1009l0 0 -11 -1 7 9c14,17 29,43 32,61 4,21 -8,41 -16,43 -10,3 -19,0 -25,-8 -8,-10 -13,-36 -15,-45l-1 -4 -4 0c0,0 -18,0 -32,0 13,-68 35,-129 49,-159 3,18 10,37 27,54l14 15c13,14 20,21 23,26l0 1 1 1c1,1 2,2 2,2 -5,2 -27,7 -51,5l0 0zm-159 -356l0 0 -15 6 -33 13c2,-5 2,-9 2,-12 0,-2 0,-3 0,-3l-1 -7 -6 3c-1,0 -5,3 -10,-3 -6,-6 2,-19 12,-28 11,-10 23,-12 41,-6 10,4 19,14 26,29 -6,3 -16,7 -16,7l0 0zm-155 221l0 0 3 9c0,0 12,28 14,31 0,1 3,16 3,16l2 14 0 1 0 3c0,0 0,1 0,2 -1,-1 -2,-1 -3,-3 -3,-4 -15,-24 -20,-39 -4,-14 -6,-26 -6,-35 0,-1 0,-2 0,-3 0,0 1,-7 1,-14 2,6 4,12 6,16l0 0zm376 131l0 0c0,-5 -4,-8 -6,-10 -4,-6 -11,-13 -24,-27l-14 -15c-19,-19 -25,-40 -26,-63l5 -9c11,-18 24,-41 22,-80 -2,-35 -21,-75 -57,-121 -6,-8 -12,-13 -18,-17 2,-3 3,-7 3,-7 6,-13 15,-32 15,-54 0,-10 -2,-20 -6,-32 -17,-47 -58,-57 -81,-58 -25,-2 -54,8 -68,14 -10,4 -25,13 -36,20l-13 7 -7 3c-11,5 -28,12 -40,28 -14,18 -16,33 -16,41 0,3 0,5 0,6 0,1 -3,13 -3,13l-2 6c-2,5 -6,16 -7,18 -3,5 -5,11 -5,18 0,4 1,12 6,15 2,1 4,1 6,0 0,0 3,-3 4,-4l0 0 2 -3c0,0 8,-8 8,-8 5,-4 22,-17 31,-32 5,-1 23,-6 32,-18l13 -20 13 -19c7,-8 32,-35 70,-33 20,1 31,9 36,16 5,6 6,13 6,17 0,1 0,2 0,3 -2,7 -5,24 -39,43 -5,-12 -15,-27 -31,-33 -20,-7 -37,-5 -50,8 -16,16 -21,31 -12,41 5,5 10,7 14,7 0,3 -1,8 -4,13 -21,9 -32,15 -39,20l-2 2c-16,12 -58,44 -65,92 -1,10 -2,19 -2,26 0,10 1,18 3,25 -1,-1 -2,-2 -3,-3 -1,-6 -3,-14 -8,-21 -7,-10 -23,-2 -25,-2l-5 5 7 4c0,0 1,3 1,3l3 6c1,2 1,6 1,11 0,1 0,2 0,2 -3,0 -6,0 -9,0l-3 0c-9,1 -14,13 -14,15l3 1c1,1 5,2 9,3 3,2 10,18 12,25l1 2c2,6 1,26 -2,62l-1 6c0,5 -4,8 -4,8l-8 7 11 1c11,1 20,-1 25,-7 5,-5 6,-12 6,-18 0,-2 0,-4 0,-5 1,1 2,2 3,4 4,9 14,25 19,32 -4,4 -5,10 -5,15 0,2 0,4 0,6l1 5 5 -2c7,-2 27,11 41,20 13,8 30,12 51,12 12,27 30,49 34,53 2,3 5,10 6,14l3 11c0,0 4,-7 5,-9 1,0 3,1 3,1 3,4 0,40 -3,49 3,1 7,2 10,3 3,-12 6,-53 -1,-59l-8 -4c-1,0 -2,0 -3,0 -1,-4 -4,-9 -7,-13 -3,-3 -22,-25 -33,-52l-1 -3 -3 0c-21,0 -37,-3 -49,-11 -18,-12 -33,-20 -43,-21 0,0 0,0 0,0 0,-4 1,-8 4,-9l5 -2 -3 -5c0,0 -16,-23 -20,-34 -5,-11 -11,-13 -15,-12 -3,1 -6,3 -6,8 0,0 0,1 0,1l0 2c0,2 0,4 0,6 0,4 -1,8 -3,11 -2,2 -5,3 -8,3 1,-2 1,-4 2,-6l1 -6c2,-18 4,-37 4,-50 0,-7 -1,-13 -2,-16l-1 -2c-8,-20 -12,-29 -18,-30 0,0 0,0 0,0 0,0 0,0 1,0l3 0c3,0 8,-1 9,0l7 5 1 -8c0,-1 0,-5 0,-9 0,-5 -1,-11 -3,-15l-2 -5c0,-1 -1,-1 -1,-2 3,-1 5,-1 6,1 4,6 7,14 7,18l0 2 1 1c2,3 4,5 5,6 0,5 -1,20 -1,20 0,1 0,2 0,4 0,10 2,23 6,38 5,16 18,37 22,42 4,5 8,7 11,7l6 -2 3 -9 0 -8 0 0 0 2 -3 -16 -3 -17 0 -1 -14 -31 -4 -9c-7,-17 -15,-38 -9,-78 6,-44 46,-75 61,-86l2 -2c6,-5 17,-10 37,-19l45 -18 15 -6 21 -10c37,-19 45,-38 48,-52 1,-6 0,-17 -8,-28 -7,-9 -19,-19 -43,-20 -41,-2 -68,25 -78,36l-13 20 -13 19c-9,11 -29,15 -29,15l-2 0 -1 2c-9,15 -26,28 -30,31l-9 10c0,0 0,1 -1,1 0,-1 0,-2 0,-3 0,-5 1,-9 3,-13 2,-3 5,-11 8,-20l2 -6 4 -15 0 -2c0,0 0,-2 0,-5 0,-6 2,-19 14,-35 10,-13 26,-20 36,-24l7 -3 13 -8c11,-6 25,-15 35,-19 14,-6 40,-15 64,-13 21,2 57,10 73,52 12,33 0,59 -9,78l-3 7c-15,-6 -29,-2 -38,0 -15,3 -33,11 -43,19 -15,11 -18,28 -18,41 0,8 1,15 2,18 2,9 9,15 14,18 -2,2 -3,4 -5,8 -2,3 -2,6 -3,9 -12,-5 -31,-6 -48,-6l-11 0c0,0 -3,-1 -4,4 -1,5 4,5 4,5l11 0c17,1 42,1 50,8l9 7 -2 -12c0,0 -1,-5 2,-11 3,-7 7,-10 7,-10l6 -5 -7 -3c0,0 -12,-5 -14,-14 -1,-4 -7,-35 12,-49 10,-7 26,-14 40,-17 15,-3 35,-8 56,18 35,45 53,83 55,116 0,3 0,6 0,8 0,31 -11,49 -21,66l-7 12c-9,18 -40,90 -57,181l-1 3c-1,8 -3,15 -4,19 -14,-13 -105,-114 -114,-155l0 -2 -1 -1c-2,-1 -34,-29 -34,-78 0,-9 1,-18 4,-28 0,0 1,-4 -3,-5 -4,-1 -6,3 -6,3 -3,11 -4,21 -4,30 0,49 31,80 37,85 8,28 45,76 76,113l0 1c-2,10 -2,16 -2,21l0 4c0,6 -4,18 -6,23l-1 2 -1 3c-1,2 -1,5 -1,9 0,15 3,42 5,47 3,9 13,17 13,17 4,1 2,-6 6,-5 -2,-2 -6,-7 -8,-13 -2,-6 -7,-34 -7,-46 0,-2 0,-4 0,-5 0,0 1,-4 1,-4 3,-9 6,-19 6,-26l0 -4c0,-1 0,-3 0,-4 0,-3 0,-6 1,-9 19,22 34,38 36,39 3,2 6,2 7,1 5,-2 7,-9 10,-26 11,0 24,0 30,0 2,10 7,34 16,46 9,11 22,15 35,11 12,-4 24,-23 24,-44 0,-3 0,-7 -1,-10 -3,-18 -16,-40 -29,-57 22,0 45,-4 50,-8 2,-2 3,-4 3,-6l0 0z"/>
  <path class="fil0" d="M895 729l0 0 -9 -4 0 12 9 -4 -3 6c-2,1 -5,2 -7,2 -6,1 -8,-1 -8,-2 -2,-3 1,-8 6,-7 0,0 -1,-7 -9,-2 0,0 0,-8 -5,-10 -3,4 0,11 0,11 -9,0 -5,7 -5,7 3,-3 9,-1 9,2 0,2 -7,5 -11,3 -5,-2 -9,-14 -8,-16 9,-14 28,-20 31,-21 3,-1 4,0 5,1 0,1 3,8 5,12l-3 0 4 8 0 0zm5 0l0 0 4 -8 -3 0c2,-4 5,-11 5,-12 1,-1 2,-2 5,-1 3,1 22,7 31,21 1,2 -3,14 -8,16 -5,2 -11,0 -11,-3 0,-4 6,-6 9,-2 0,0 4,-7 -5,-7 0,0 4,-5 0,-9 -5,1 -5,8 -5,8 -7,-5 -9,2 -9,2 4,-1 7,4 6,7 -1,1 -2,3 -8,2 -2,0 -5,-1 -7,-2l-3 -6 9 4 0 -12 -9 4 0 0zm-61 -5l0 0c-1,1 -2,4 0,5 1,2 2,2 4,3 1,1 5,25 6,27 1,2 1,6 1,6 0,0 0,4 1,6 1,1 4,1 5,2 0,1 0,2 4,1 4,-1 19,-7 38,-7 19,0 34,6 38,7 4,1 4,0 4,-1 1,-1 3,-1 5,-2 2,-2 1,-6 1,-6 0,0 0,-3 1,-6 1,-2 5,-26 6,-27 1,-1 2,-2 4,-3 1,-2 1,-4 0,-5 -18,-21 -39,-28 -54,-30l-2 -5 6 3 0 -8 -6 3 3 -6 -8 0 3 6 -6 -3 0 8 6 -3 -2 5c-14,1 -36,9 -54,30l0 0zm114 399l0 0c11,-10 11,-16 11,-16 -4,-4 -18,-6 -18,-6 4,7 -5,13 -5,13 11,1 12,9 12,9l0 0zm-116 -17l0 0c1,5 11,15 11,15 1,-8 12,-7 12,-7 -9,-7 -4,-15 -4,-15 -14,2 -18,7 -18,7l0 0zm63 -22l0 0c4,-11 13,-9 13,-9 -6,-13 -12,-15 -12,-15 -5,2 -11,15 -11,15 8,-1 11,9 11,9l0 0zm-40 77l0 0c-3,14 1,19 1,19 5,1 18,-6 18,-6 -7,-4 -3,-13 -3,-13 -10,6 -15,0 -15,0l0 0zm221 -331l0 0c3,-1 5,-4 6,-5 0,-1 1,-5 0,-8 -7,-16 -28,-16 -28,-16 -3,-4 -8,-2 -8,-2 -17,-17 -37,-21 -37,-21 -5,-7 -12,-3 -12,-3 -15,-6 -30,-13 -45,-20 -1,3 -1,6 -1,6 0,1 0,2 -1,3 0,1 0,2 0,2 0,3 -1,6 -3,9 14,6 27,12 41,18 0,0 2,8 11,7 0,0 17,13 40,14 0,0 2,6 7,5 0,0 14,16 31,10l0 0zm338 382l0 0c-9,-8 -25,-16 -34,-26 -3,-4 -16,-8 -31,-13 0,0 -1,0 -1,-1 -4,-1 -11,-4 -19,-6 4,11 22,26 31,32 6,4 4,9 3,11 0,0 -8,-7 -17,-7 -9,0 -19,-3 -32,5 -13,8 -20,11 -23,21 -2,6 -3,10 -3,10 0,0 -9,-11 -10,-18 0,0 -20,-13 -31,-14 -11,-1 -24,3 -25,9 0,0 -1,-12 6,-19 3,-3 9,-8 9,-8 0,0 -6,-5 -10,-1 0,0 1,-11 6,-12 5,-1 30,-1 38,-1 9,0 26,-3 30,-14 0,-1 0,-1 1,-2 -4,-1 -8,-2 -10,-3 -5,-2 -10,-3 -12,-4 -17,-8 -48,-9 -65,-10l-5 -1 0 -36 -5 0c-22,-2 -52,1 -72,15l-1 0 0 0c-15,-4 -31,-7 -56,-13 -1,0 -7,-2 -11,-3 24,-31 43,-70 48,-117l-9 0c-19,146 -165,208 -208,217 -44,-10 -196,-74 -210,-227l-9 0c5,53 25,96 53,130 -21,3 -50,9 -60,12 -4,1 -7,2 -10,3 0,0 -1,0 -2,0 -17,-18 -52,-24 -77,-20l-4 1 0 44c-18,1 -36,0 -44,1 -7,1 -19,6 -31,11 5,3 12,4 18,4 0,0 39,1 39,1 8,1 12,10 13,19 0,0 1,6 1,12 3,6 4,11 4,15 0,2 0,3 0,3l-4 13 -10 -11c-1,-2 -9,-4 -18,-4 -6,1 -18,7 -25,11 -2,8 -9,16 -10,18l-9 11 -6 -24c-2,-6 -6,-8 -17,-15l-2 -1c-8,-5 -14,-4 -20,-4 0,0 -8,0 -8,0 -5,0 -10,3 -11,5l-7 7 -4 -9c-4,-7 -2,-15 6,-20 4,-3 8,-6 12,-9 -1,0 -2,0 -3,1 -11,2 -39,19 -54,25 -16,6 -40,18 -39,26 1,8 18,37 39,42 3,1 5,1 7,2l0 -17 110 0c60,-12 125,-34 130,-64 0,0 -21,-11 -44,-9l0 -38c0,0 0,0 0,0 0,-8 0,-27 0,-33 20,-2 45,2 59,14 0,0 1,0 1,1 2,2 9,11 9,16l0 107c0,0 -1,3 -4,7l73 0 0 0 404 0 0 0 2 1 3 0c-3,-4 -4,-7 -4,-7l0 -107c0,-3 2,-8 5,-11 14,-13 41,-18 64,-16 0,4 0,15 0,24l0 0 0 45c-23,-2 -44,9 -44,9 6,29 71,51 131,64l109 0 0 26c3,-2 5,-3 7,-5l0 0c14,-7 25,-26 28,-35 3,-11 -8,-22 -17,-30l0 0zm-457 -494l0 0 1 2c54,-27 101,-50 105,-52 10,-5 16,-16 16,-16 0,0 -13,-2 -23,3 -4,2 -56,25 -113,51 5,4 10,8 14,13l0 0zm-200 -41l0 0c-3,0 -6,-7 -2,-9 0,0 -7,-4 -8,5 0,0 -5,-5 -10,-1 1,6 8,7 8,7 -6,7 2,9 2,9 -1,-5 5,-7 8,-5 3,2 1,8 -3,12 -4,4 -10,4 -14,3 -8,-3 -10,-15 -5,-27 5,-11 15,-18 23,-14 4,2 7,7 7,12 0,5 -3,10 -7,10l0 0zm51 10l0 0c-1,-6 -6,-2 -6,-2 -7,-9 -19,-12 -19,-12 -1,-2 -4,-4 -7,-6 -1,-9 -7,-18 -15,-21 -12,-6 -28,1 -36,14 -1,-1 -2,-2 -3,-3 -4,-2 -9,0 -10,3 -2,4 0,8 5,10 1,1 3,1 4,1 -4,15 1,31 14,36 8,4 18,2 26,-3 3,1 7,2 9,2 0,0 11,7 22,6 0,0 1,6 6,3 0,0 7,10 19,7 0,0 4,1 10,4 1,-3 2,-7 2,-7 4,-5 9,-10 14,-14 -10,-5 -15,-7 -15,-7 -5,-10 -17,-9 -17,-9l0 0zm-84 141l0 0c3,-1 5,-3 6,-6 3,0 6,0 10,0 4,-1 34,-14 48,-20 0,0 0,0 0,0 6,9 16,21 24,25 12,7 17,5 19,1 2,-4 -1,-11 -11,-16 -6,-3 -13,-9 -18,-16 0,0 0,0 0,0 8,-4 22,-11 38,-19 -1,0 -1,-1 -1,-1 -1,-1 -1,-1 -1,-2 -2,-3 -3,-7 -3,-9 0,0 0,-1 0,-1 0,-1 -1,-4 -1,-4 0,0 -1,-3 -2,-7 -18,8 -33,15 -42,19 0,0 0,0 0,0 -1,-8 -2,-18 -1,-24 2,-10 -1,-17 -5,-18 -5,-1 -10,2 -12,15 -2,9 2,24 5,34 0,0 0,0 0,0 -14,7 -43,22 -46,25 -3,2 -5,5 -6,7 -2,-1 -5,0 -8,1 -5,3 -8,8 -6,12 2,4 8,5 13,2l0 0zm180 311l0 0c-7,5 -17,4 -22,-4 -5,-7 -3,-17 4,-22 7,-5 17,-3 23,4 5,7 3,17 -4,22l0 0zm37 -18l0 0c-3,-4 -14,0 -17,2l-6 1 -4 -4c-1,-2 -1,-3 0,-5 1,-2 3,-3 6,-3 3,0 15,-3 15,-8 0,-4 -4,-12 -11,-17 -7,-5 -16,-7 -19,-6 -5,1 -4,13 -4,16 1,3 0,5 -1,7 -1,1 -3,2 -5,2l-5 -3 -1 -6c1,-3 1,-15 -3,-16 -4,-1 -12,0 -19,6 -7,5 -12,13 -12,17 0,5 11,8 15,9l6 3 1 5c0,2 -2,3 -3,4 -2,1 -5,1 -7,-1 -3,-2 -14,-6 -17,-2 -2,3 -3,12 -1,20 3,8 8,15 12,16 5,2 11,-8 13,-11 1,-2 3,-4 5,-5 2,0 3,0 5,1 0,0 2,5 2,5 0,0 -3,5 -3,5 -2,2 -8,9 -8,13 0,1 0,2 1,2 2,3 10,7 19,7l0 0c9,0 17,-3 19,-7 0,-1 1,-1 1,-2 0,-4 -5,-11 -7,-13l-3 -6 2 -5c1,-1 3,-2 5,-1 2,0 4,2 5,5 1,3 8,13 12,11 4,-1 10,-8 13,-16 3,-8 2,-17 0,-20l0 0zm-4 -102l0 -21 13 0c6,8 10,15 12,21l-25 0 0 0zm0 -35l0 0c2,2 4,4 6,5l-6 0 0 -5zm-8 5l-27 0 0 -20c10,2 19,5 27,9l0 11zm0 29l-27 0 0 -21 27 0 0 21zm-35 -29l-27 0 0 -10c7,-5 16,-9 27,-10l0 20zm0 29l-26 0 0 -21 26 0 0 21zm-35 -29l-3 0c1,-1 2,-2 3,-3l0 3zm0 29l-23 0c2,-6 6,-13 12,-21l11 0 0 21zm204 48l0 -37c0,-1 1,-3 4,-3 0,0 0,0 0,0 0,-1 0,-2 -1,-3 -5,-9 -9,-23 -9,-24 0,0 -4,-81 -4,-81 0,-7 7,-17 8,-19l0 -23c0,0 -1,-1 -2,-2l-7 0c-1,0 -2,1 -2,0l0 2 -1 1 -3 -1 -1 0c0,0 0,-2 -1,-2l-8 0 0 10 -11 0 0 -2 0 -8 -9 0 0 2 -1 0 -3 1 -1 -1 0 -1c0,0 0,-1 -2,-1l-6 0c-1,0 -2,1 -2,2l0 23c1,1 7,11 7,11l-10 0c0,0 -3,0 -3,1l0 10 -17 0 0 -2 0 -8 -14 0c0,0 -1,0 -1,0l0 10 -17 0 0 -40c0,-6 6,-20 6,-20l0 -25c0,-3 -3,-4 -3,-4l-15 0c-2,0 -3,2 -3,2l0 8 -5 0 0 -11c0,-1 -1,-2 -2,-2l-13 1 0 12 -17 0 0 -2 -1 -10 -12 0c-1,0 -2,0 -2,2l0 11 -5 0 0 -8c0,-1 -1,-2 -3,-2l-14 0c0,0 -4,1 -4,4l0 24c0,1 6,14 6,20l0 40 -17 0 0 -2 0 -8 -2 0 -14 0 0 10 -17 0 0 -2 0 -8 -9 0 -4 0c0,0 6,-9 7,-11l0 -23c0,0 -1,-1 -2,-2l-7 0c-1,0 -2,1 -2,0l0 2 -1 1 -3 -1 -1 0c0,0 0,-2 -1,-2l-8 0 0 10 -11 0 0 -2 0 -8 -9 0 0 2 -1 0 -3 1 -1 -1 0 -1c0,0 -1,-1 -2,-1l-6 0c-1,0 -2,1 -2,2l0 23c1,2 8,12 8,19l0 0c0,0 -4,81 -4,81 0,1 -4,14 -9,24 -1,1 -1,3 -1,4 4,1 4,2 4,3l0 37 64 0 0 -11 32 0c0,-4 0,-28 0,-28 0,0 0,0 0,-1l26 0 0 7 -4 0 8 14 8 -14 -4 0 0 -7 27 0 0 7 -4 0 8 14 8 -14 -4 0 0 -7 27 0 0 7 -4 0 8 14 8 -14 -4 0 0 -7 28 0c0,1 0,1 0,1 0,0 0,24 0,27l32 0 0 11 64 0 0 0zm-385 -261l0 0 9 0 0 -17c0,-82 0,-140 0,-156l420 0c0,16 0,75 0,156l0 19 9 0c0,-106 0,-178 0,-179l0 -5 -439 0 0 5c0,1 0,72 0,178l0 0zm238 369c13,7 19,5 19,5 2,-5 0,-19 0,-19 -6,6 -14,-1 -14,-1 3,11 -5,14 -5,14l0 0z"/>
  <path class="fil0" d="M898 1617l0 0c-399,0 -723,-324 -723,-723 0,-399 324,-723 723,-723 399,0 723,324 723,723 0,399 -324,723 -723,723l0 0zm5 -1621l-9 0c-494,3 -893,404 -893,898 0,496 402,898 898,898 496,0 898,-402 898,-898 0,-494 -400,-895 -893,-898z"/>
  <path class="fil0" d="M2244 783l83 0 -30 -152c-2,-9 -4,-21 -6,-35 -3,-23 -4,-35 -4,-65 -2,30 -3,43 -5,65 -3,12 -4,25 -6,35l-31 152 0 0zm-71 -356l225 0 162 639 -181 0 -34 -163 -120 0 -34 163 -181 0 161 -639 0 0z"/>
  <path class="fil0" d="M2973 559c-29,-10 -51,-13 -74,-13 -87,0 -125,63 -125,207 0,137 39,199 127,199 28,0 58,-6 91,-22l15 122c-54,19 -101,27 -149,27 -171,0 -268,-119 -268,-328 0,-208 98,-332 266,-332 46,0 91,8 137,25l-21 116 0 0z"/>
  <polygon class="fil0" points="3068,428 3521,428 3521,549 3383,561 3383,1067 3204,1067 3204,561 3068,548 "/>
  <path class="fil0" d="M2146 1174c-16,-11 -30,-16 -46,-16 -18,0 -34,9 -42,25 -8,16 -12,37 -12,71 0,31 3,49 11,65 8,16 23,25 44,25 12,0 22,-3 34,-9l0 -72 -49 0 0 -23 80 0 0 113c-31,12 -48,16 -69,16 -58,0 -88,-38 -88,-115 0,-80 29,-122 86,-122 22,0 40,6 60,20l-11 21 0 0z"/>
  <path class="fil0" d="M2228 1286l0 0c0,40 13,61 37,61 24,0 37,-21 37,-61 0,-40 -13,-61 -37,-61 -24,0 -37,21 -37,61l0 0zm37 -83c45,0 69,29 69,83 0,55 -23,84 -69,84 -45,0 -69,-29 -69,-84 0,-55 24,-83 69,-83l0 0z"/>
  <path class="fil0" d="M2374 1202l35 119c2,5 3,11 4,20 1,-9 3,-17 4,-20l34 -115 31 0 -51 159 -38 0 -51 -159 32 -4 0 0z"/>
  <path class="fil0" d="M2522 1275l72 0 0 -1c0,-32 -12,-50 -35,-50 -23,0 -36,18 -37,50l0 0zm3 21c3,32 21,49 51,49 11,0 22,-2 37,-8l6 23c-17,6 -33,9 -49,9 -50,0 -78,-31 -78,-85 0,-51 25,-81 68,-81 41,0 64,29 64,80 0,3 0,8 0,14l-98 0 0 0z"/>
  <path class="fil0" d="M2651 1206l30 -1 0 13c13,-10 23,-14 40,-14l-3 29c-4,-1 -7,-1 -10,-1 -10,0 -18,2 -26,8l0 126 -30 0 0 -159z"/>
  <path class="fil0" d="M2740 1206l30 -4 0 15c17,-11 31,-16 46,-16 15,0 28,5 37,13 9,9 12,19 12,40l0 111 -30 0 0 -104c0,-6 0,-11 -1,-15 -2,-12 -13,-20 -28,-20 -11,0 -23,4 -36,14l0 125 -30 0 0 -159z"/>
  <path class="fil0" d="M2900 1206l30 -3 0 12c15,-9 27,-13 41,-13 13,0 26,4 34,12 2,2 4,4 6,8 17,-13 32,-19 49,-19 15,0 27,5 36,14 9,10 12,18 12,40l0 110 -30 0 0 -103c0,-7 0,-11 -1,-15 -2,-12 -13,-21 -27,-21 -11,0 -20,4 -31,14l0 125 -30 0 0 -102c0,-8 0,-12 0,-16 -2,-12 -13,-21 -28,-21 -11,0 -20,3 -30,12l0 127 -30 0 0 -159z"/>
  <path class="fil0" d="M3167 1275l72 0 0 -1c0,-32 -12,-50 -35,-50 -23,0 -36,18 -37,50l0 0zm3 21c3,32 21,49 51,49 11,0 22,-2 37,-8l6 23c-17,6 -33,9 -49,9 -49,0 -77,-31 -77,-85 0,-51 25,-81 68,-81 41,0 64,29 64,80 0,3 0,8 0,14l-98 0 0 0z"/>
  <path class="fil0" d="M3296 1206l29 -4 0 15c17,-11 31,-16 46,-16 15,0 28,5 37,13 9,9 12,19 12,40l0 111 -30 0 0 -104c0,-6 0,-11 -1,-15 -2,-12 -13,-20 -28,-20 -12,0 -23,4 -36,14l0 125 -30 0 0 -159z"/>
  <path class="fil0" d="M3441 1206l20 0 0 -26 30 -5 0 31 31 0 0 20 -31 3 0 95c0,6 0,9 0,11 1,7 6,11 14,11 5,0 10,-1 16,-3l0 22c-8,3 -17,4 -26,4 -12,0 -22,-3 -28,-9 -5,-5 -7,-13 -7,-27l0 -105 -20 -2 0 -20z"/>
 </g>
</svg>
